<svg xmlns="http://www.w3.org/2000/svg" width="1200" height="800" viewBox="0 0 1200 800">
<rect width="1200" height="800" fill="#060606"/>

<!-- ROW 0-1 -->
<polygon points="0,0 280,0 130,160" fill="#0e0202"/>
<polygon points="280,0 550,0 420,140" fill="#0a0101"/>
<polygon points="550,0 800,0 670,170" fill="#130202"/>
<polygon points="800,0 1050,0 920,150" fill="#0c0101"/>
<polygon points="1050,0 1200,0 1200,170 1080,175" fill="#100202"/>
<polygon points="0,0 130,160 0,290" fill="#160303"/>
<polygon points="130,160 280,0 420,140" fill="#0a0101"/>
<polygon points="420,140 550,0 670,170" fill="#0d0202"/>
<polygon points="670,170 800,0 920,150" fill="#080808"/>
<polygon points="920,150 1050,0 1080,175" fill="#120202"/>

<!-- ROW 1-2 -->
<polygon points="0,290 130,160 200,330" fill="#190303"/>
<polygon points="130,160 420,140 300,320" fill="#0b0101"/>
<polygon points="200,330 130,160 300,320" fill="#140202"/>
<polygon points="420,140 670,170 520,300" fill="#100202"/>
<polygon points="300,320 420,140 520,300" fill="#0e0202"/>
<polygon points="670,170 920,150 780,310" fill="#080808"/>
<polygon points="520,300 670,170 780,310" fill="#130202"/>
<polygon points="920,150 1080,175 1000,290" fill="#0c0101"/>
<polygon points="780,310 920,150 1000,290" fill="#180303"/>
<polygon points="1080,175 1200,170 1200,320 1000,290" fill="#0a0101"/>

<!-- ROW 2-3 -->
<polygon points="0,290 200,330 60,460" fill="#1c0404"/>
<polygon points="200,330 300,320 240,470" fill="#0e0202"/>
<polygon points="60,460 200,330 240,470" fill="#130202"/>
<polygon points="300,320 520,300 400,470" fill="#0a0101"/>
<polygon points="240,470 300,320 400,470" fill="#100202"/>
<polygon points="520,300 780,310 630,450" fill="#160303"/>
<polygon points="400,470 520,300 630,450" fill="#0d0101"/>
<polygon points="780,310 1000,290 880,450" fill="#080808"/>
<polygon points="630,450 780,310 880,450" fill="#110202"/>
<polygon points="1000,290 1200,320 1200,470 1030,460" fill="#0b0101"/>
<polygon points="880,450 1000,290 1030,460" fill="#180404"/>

<!-- ROW 3-4 -->
<polygon points="0,460 60,460 140,620" fill="#200404"/>
<polygon points="0,460 140,620 0,620" fill="#0c0101"/>
<polygon points="60,460 240,470 170,620" fill="#150303"/>
<polygon points="140,620 60,460 170,620" fill="#0e0202"/>
<polygon points="240,470 400,470 330,640" fill="#110202"/>
<polygon points="170,620 240,470 330,640" fill="#1a0303"/>
<polygon points="400,470 630,450 510,630" fill="#0a0101"/>
<polygon points="330,640 400,470 510,630" fill="#140202"/>
<polygon points="630,450 880,450 750,620" fill="#1e0404"/>
<polygon points="510,630 630,450 750,620" fill="#0d0101"/>
<polygon points="880,450 1030,460 960,620" fill="#120202"/>
<polygon points="750,620 880,450 960,620" fill="#090101"/>
<polygon points="1030,460 1200,470 1200,630 1080,610" fill="#160303"/>
<polygon points="960,620 1030,460 1080,610" fill="#1b0404"/>

<!-- ROW 4-5 (bottom) -->
<polygon points="0,620 140,620 80,800" fill="#1d0303"/>
<polygon points="0,620 80,800 0,800" fill="#0a0101"/>
<polygon points="140,620 170,620 280,800" fill="#0f0202"/>
<polygon points="80,800 140,620 280,800" fill="#130202"/>
<polygon points="170,620 330,640 380,800" fill="#170303"/>
<polygon points="280,800 170,620 380,800" fill="#0b0101"/>
<polygon points="330,640 510,630 470,800" fill="#1c0404"/>
<polygon points="380,800 330,640 470,800" fill="#0e0202"/>
<polygon points="510,630 750,620 630,800" fill="#110202"/>
<polygon points="470,800 510,630 630,800" fill="#180303"/>
<polygon points="750,620 960,620 860,800" fill="#0c0101"/>
<polygon points="630,800 750,620 860,800" fill="#1a0404"/>
<polygon points="960,620 1080,610 1050,800" fill="#140303"/>
<polygon points="860,800 960,620 1050,800" fill="#080808"/>
<polygon points="1080,610 1200,630 1200,800 1050,800" fill="#100202"/>

<!-- Red highlight edges -->
<line x1="130" y1="160" x2="420" y2="140" stroke="#dc2626" stroke-width="0.8" opacity="0.45"/>
<line x1="420" y1="140" x2="300" y2="320" stroke="#dc2626" stroke-width="0.6" opacity="0.35"/>
<line x1="300" y1="320" x2="520" y2="300" stroke="#ef4444" stroke-width="1" opacity="0.5"/>
<line x1="520" y1="300" x2="630" y2="450" stroke="#dc2626" stroke-width="0.7" opacity="0.4"/>
<line x1="630" y1="450" x2="510" y2="630" stroke="#ef4444" stroke-width="0.9" opacity="0.45"/>
<line x1="510" y1="630" x2="750" y2="620" stroke="#dc2626" stroke-width="0.6" opacity="0.35"/>
<line x1="0" y1="290" x2="200" y2="330" stroke="#b91c1c" stroke-width="0.7" opacity="0.3"/>
<line x1="670" y1="170" x2="780" y2="310" stroke="#dc2626" stroke-width="0.8" opacity="0.4"/>
<line x1="780" y1="310" x2="880" y2="450" stroke="#ef4444" stroke-width="0.7" opacity="0.45"/>
<line x1="880" y1="450" x2="960" y2="620" stroke="#dc2626" stroke-width="0.6" opacity="0.35"/>
<line x1="240" y1="470" x2="400" y2="470" stroke="#dc2626" stroke-width="1.1" opacity="0.55"/>
<line x1="400" y1="470" x2="630" y2="450" stroke="#ef4444" stroke-width="0.8" opacity="0.4"/>
<line x1="130" y1="160" x2="0" y2="290" stroke="#b91c1c" stroke-width="0.8" opacity="0.4"/>
<line x1="200" y1="330" x2="60" y2="460" stroke="#dc2626" stroke-width="0.7" opacity="0.35"/>
<line x1="920" y1="150" x2="1000" y2="290" stroke="#b91c1c" stroke-width="0.7" opacity="0.3"/>
<line x1="1000" y1="290" x2="1030" y2="460" stroke="#dc2626" stroke-width="0.8" opacity="0.38"/>
<line x1="1030" y1="460" x2="1080" y2="610" stroke="#ef4444" stroke-width="0.6" opacity="0.4"/>
</svg>
